<svg xmlns="http://www.w3.org/2000/svg" viewBox="-15 0 62 1">
  <path d="M 0 0 L 1 1 L 1 1 Z L -1 1 L -2 0 L -3 1 L -4 0 L -5 1 L -6 0 L -7 1 L -8 0 L -9 1 L -10 0 L -11 1 L -12 0 L -13 1 L -14 0 L -15 1 L 1 1 Z L 1 1 L 2 0 L 3 1 L 4 0 L 5 1 L 6 0 L 7 1 L 8 0 L 9 1 L 10 0 L 11 1 L 12 0 L 13 1 L 14 0 L 15 1 L 16 0 L 17 1 L 18 0 L 19 1 L 20 0 L 21 1 L 22 0 L 23 1 L 24 0 L 25 1 L 26 0 L 27 1 L 28 0 L 28 0 L 28 0 L 29 1 L 30 0 L 31 1 L 32 0 L 33 1 L 34 0 L 35 1 L 36 0 L 37 1 L 38 0 L 39 1 L 40 0 L 41 1 L 42 0 L 43 1 L 43 1 L 44 0 L 45 1 L 46 0 L 47 1 L 1 1 Z Z z" fill="#e4e4e4"/>
</svg>